<svg width="112" height="112" viewBox="0 0 112 112" fill="none" xmlns="http://www.w3.org/2000/svg">
<circle cx="56" cy="56" r="56" fill="#EFEFEF"/>
<path d="M52.5833 83.3333H37.0208C31.7757 83.3333 27.2937 81.5177 23.5748 77.8865C19.856 74.2552 17.9977 69.817 18 64.5719C18 60.076 19.3545 56.0701 22.0635 52.5542C24.7726 49.0382 28.3174 46.7903 32.6979 45.8104C34.1389 40.5076 37.0208 36.2135 41.3438 32.9281C45.6667 29.6427 50.566 28 56.0417 28C62.7854 28 68.5067 30.3494 73.2054 35.0481C77.9041 39.7468 80.2523 45.4669 80.25 52.2083C84.2271 52.6694 87.5275 54.3848 90.1512 57.3543C92.7749 60.3239 94.0856 63.7961 94.0833 67.7708C94.0833 72.0937 92.5697 75.7688 89.5425 78.796C86.5153 81.8232 82.8414 83.3356 78.5208 83.3333H59.5V58.6063L65.0333 63.9667L69.875 59.125L56.0417 45.2917L42.2083 59.125L47.05 63.9667L52.5833 58.6063V83.3333Z" fill="#5779A2"/>
</svg>
