<svg width="112" height="112" viewBox="0 0 112 112" fill="none" xmlns="http://www.w3.org/2000/svg">
<circle cx="56" cy="56" r="56" fill="#EFEFEF"/>
<path d="M55.5 30.5625C38.2083 30.5625 23.4413 41.3179 17.4583 56.5C23.4413 71.6821 38.2083 82.4375 55.5 82.4375C72.7917 82.4375 87.5588 71.6821 93.5417 56.5C87.5588 41.3179 72.7917 30.5625 55.5 30.5625ZM55.5 73.7917C45.955 73.7917 38.2083 66.045 38.2083 56.5C38.2083 46.955 45.955 39.2083 55.5 39.2083C65.045 39.2083 72.7917 46.955 72.7917 56.5C72.7917 66.045 65.045 73.7917 55.5 73.7917ZM55.5 46.125C49.7592 46.125 45.125 50.7592 45.125 56.5C45.125 62.2408 49.7592 66.875 55.5 66.875C61.2408 66.875 65.875 62.2408 65.875 56.5C65.875 50.7592 61.2408 46.125 55.5 46.125Z" fill="#5779A2"/>
</svg>
